<svg width="41" height="67" viewBox="0 0 41 67" fill="none" xmlns="http://www.w3.org/2000/svg">
<path d="M40.1108 3.77293C39.9516 3.64972 39.7726 3.67026 39.5935 3.67026C38.7381 3.67026 37.9026 3.64972 37.0472 3.67026C36.6493 3.69079 36.5499 3.48544 36.6294 3.17741C36.7488 2.76671 36.6294 2.33547 36.6493 1.92477C36.6692 1.78102 36.6096 1.55513 36.4106 1.5346C36.2117 1.5346 36.1719 1.71942 36.1719 1.90423C36.1719 2.35601 36.1719 2.80778 36.1719 3.23902C36.1719 3.50597 36.0923 3.67026 35.7541 3.64972C34.859 3.60865 33.9439 3.64972 33.0487 3.62918C31.5567 3.60865 30.0846 3.52651 28.5926 3.52651C24.5742 3.52651 20.5558 3.48544 16.5373 3.42383C13.6926 3.38276 10.828 3.38276 7.98326 3.38276C7.287 3.38276 6.55095 3.30062 5.87458 3.36223C4.9595 3.44437 4.04441 3.32116 3.12932 3.42383C2.95028 3.44437 2.79114 3.34169 2.79114 3.0542C2.79114 2.35601 2.75135 1.63727 2.71157 0.939079C2.71157 0.795333 2.77125 0.610517 2.6121 0.528376C2.43306 0.4257 2.3336 0.610517 2.21424 0.713192C2.07498 0.836403 2.05509 0.959614 2.05509 1.14443C2.07498 1.73995 2.0352 2.31493 2.15456 2.91045C2.19434 3.09527 2.25402 3.4033 1.87605 3.34169C1.37872 3.25955 0.881393 3.4033 0.384064 3.4033C0.105559 3.4033 0.165239 3.60865 0.284598 3.73186C0.403957 3.93721 0.582995 4.01935 0.80182 3.99882C1.12011 3.99882 1.4583 3.99882 1.77659 3.99882C2.0153 3.99882 2.11477 3.99882 2.13466 4.34792C2.21424 6.19608 2.11477 8.06478 2.25402 9.91294C2.37338 11.679 2.27392 13.445 2.35349 15.211C2.45295 17.2851 2.39328 19.3591 2.47285 21.4332C2.53253 23.3635 2.51263 25.2938 2.59221 27.2241C2.63199 28.3946 2.6121 29.5651 2.65189 30.7151C2.75135 33.0766 2.69167 35.4381 2.79114 37.7997C2.87071 39.4014 2.79114 41.0032 2.87071 42.6049C2.95028 44.3915 2.87071 46.178 2.97018 47.9441C3.06964 49.7306 3.04975 51.5377 3.08954 53.3243C3.12932 55.3367 3.2089 57.3286 3.24868 59.3411C3.26857 60.3473 3.24868 61.3535 3.24868 62.3803C3.12932 62.3803 3.00996 62.3803 2.87071 62.3803C2.05509 62.3803 1.23947 62.3803 0.443743 62.3803C0.244811 62.3803 0.0259862 62.3597 0.00609303 62.6472C-0.0336933 62.9347 0.125452 63.0169 0.36417 63.0785C0.543209 63.1401 0.702354 63.1401 0.881393 63.1606C1.49808 63.1606 2.11477 63.2222 2.71157 63.1401C3.32825 63.0579 3.34815 63.3865 3.34815 63.8383C3.34815 64.557 3.36804 65.2963 3.34815 66.015C3.32825 66.5078 3.70623 66.4257 3.94494 66.4873C4.24334 66.5695 4.22345 66.282 4.22345 66.0766C4.22345 65.2757 4.26323 64.4749 4.18366 63.674C4.14388 63.2633 4.22345 63.1606 4.60142 63.1401C8.18219 63.0785 11.763 63.2017 15.3636 63.0785C16.6965 63.0374 18.0691 63.1195 19.4218 63.1401C22.0477 63.1606 24.6935 63.1811 27.3194 63.0169C27.6775 63.1401 28.0555 63.0579 28.4136 63.099C28.891 63.099 29.3485 63.1195 29.826 63.1195C30.1443 63.1195 30.4825 63.1195 30.8007 63.1195C31.5766 63.1606 32.3723 63.0374 33.1481 63.0785C34.0831 63.099 34.9982 63.099 35.9332 63.0579C36.6692 63.0169 36.6493 62.9963 36.6493 63.7767C36.6493 64.0847 36.6294 64.3722 36.6493 64.6802C36.6692 64.8445 36.53 65.0704 36.7488 65.1731C36.9875 65.2963 37.1666 65.0909 37.3456 65.0088C37.465 64.9472 37.5246 64.7213 37.5246 64.5159C37.5047 64.2079 37.5445 63.8793 37.5047 63.5713C37.465 63.1401 37.644 63.0169 38.0419 63.0579C38.3602 63.0785 38.6983 63.0579 39.0166 63.0579C39.4742 63.0785 39.3946 62.6472 39.4344 62.4213C39.4941 62.1544 39.2156 62.1544 39.0166 62.1544C38.6586 62.1544 38.3005 62.1339 37.9424 62.1544C37.6241 62.1749 37.5047 62.1133 37.5047 61.7437C37.5246 60.2652 37.5246 58.7866 37.5047 57.3286C37.4849 55.7474 37.4451 54.1662 37.4252 52.5645C37.4053 50.9627 37.4053 49.3815 37.4053 47.7798C37.4053 47.595 37.3058 47.3896 37.644 47.3485C38.4994 47.2459 39.0564 46.7736 39.3349 45.8905C39.5537 45.1923 39.2355 44.5763 38.5392 44.4531C38.2209 44.3915 37.9225 44.2683 37.6241 44.2477C37.4252 44.2272 37.4053 44.1451 37.4053 43.9808C37.4053 42.8924 37.3854 41.804 37.3456 40.7157C37.2859 39.2782 37.3655 37.8408 37.3257 36.4033C37.2262 33.2409 37.3854 30.0785 37.2461 26.9161C37.1865 25.5402 37.2063 24.1438 37.2063 22.7474C37.1865 19.5234 37.2461 16.2788 37.1268 13.0548C37.0671 11.412 37.1268 9.7692 37.087 8.12638C37.0671 7.05856 37.1865 5.99073 37.0074 4.9229C36.9477 4.59434 37.087 4.38899 37.4849 4.40952C38.3204 4.45059 39.1559 4.43006 39.9715 4.40952C40.1306 4.40952 40.3694 4.53273 40.429 4.28631C40.4688 4.06042 40.2898 3.89614 40.1108 3.77293ZM32.1535 62.0723C32.0938 62.0723 32.054 62.0928 32.0341 62.1339C31.8949 62.0106 31.7755 62.1339 31.6561 62.216C31.6363 62.1544 31.5965 62.1133 31.497 62.0928C31.1986 62.0517 30.9201 61.9901 30.6615 62.1749C30.4029 61.8258 30.1642 61.8258 29.9055 62.1749C29.8658 62.1133 29.7862 62.0928 29.7265 62.0723C28.6125 61.9901 27.4985 62.0106 26.3845 62.0723C26.3248 62.1133 26.2651 62.1544 26.2054 62.1749C25.9866 62.0517 25.728 62.0722 25.4893 62.0928C25.4097 62.0928 25.2108 61.8669 25.2306 62.1749C25.1909 62.1544 25.171 62.1133 25.1312 62.0928C24.972 62.0517 24.8129 62.0517 24.6537 62.0517C22.4854 62.0517 20.317 62.0312 18.1487 62.0928C13.6926 62.2365 9.23653 62.0722 4.76056 62.1955C4.34281 62.216 4.22345 62.0517 4.22345 61.6615C4.22345 60.4294 4.22345 59.1973 4.16377 57.9652C4.04441 55.768 4.10409 53.5707 4.04441 51.3734C3.96484 48.1494 3.88526 44.9254 3.82558 41.7014C3.74601 38.3336 3.68633 34.9658 3.60676 31.5775C3.54708 28.5794 3.4874 25.5813 3.40783 22.5831C3.30836 19.277 3.24868 15.9914 3.189 12.6852C3.12932 10.0567 3.00996 7.42819 3.04975 4.79969C3.04975 4.34792 3.16911 4.24524 3.60676 4.24524C6.61063 4.24524 9.59461 4.30685 12.5985 4.34792C16.7959 4.40952 20.9735 4.43006 25.171 4.47113C28.5926 4.5122 32.0341 4.55327 35.4557 4.59434C35.8536 4.59434 36.0326 4.71755 36.0525 5.16932C36.1122 6.89428 36.0724 8.61923 36.1122 10.3647C36.152 12.3361 36.1122 14.3075 36.1321 16.2788C36.1719 21.926 36.1321 27.5732 36.2515 33.2203C36.3112 36.5881 36.2117 39.9764 36.331 43.3442C36.3509 44.104 36.2515 44.2067 35.4955 44.1861C34.2622 44.1451 33.0487 44.1656 31.8153 44.2067C30.5421 44.2272 29.269 44.2067 27.9958 44.3093C27.7173 44.3299 27.4189 44.2888 27.1404 44.3299C26.9216 44.3709 26.7624 44.2683 26.6829 44.0424C26.0861 42.5638 25.4296 41.1264 24.6935 39.6889C24.415 39.1345 24.0371 38.7648 23.4999 38.539C22.8833 38.2925 22.2268 38.3952 21.6499 38.6416C21.2321 38.8059 21.1327 39.3398 21.0531 39.7711C20.8343 41.1059 20.3966 42.3996 20.2176 43.7549C20.1778 44.0218 20.1579 44.4325 19.8794 44.4531C19.581 44.4736 19.5611 44.0629 19.4616 43.8165C18.4073 41.5782 16.8954 39.9559 14.3292 39.73C13.6528 39.6684 12.9566 39.6479 12.2802 39.6479C11.7829 39.6479 11.2656 39.6479 10.7683 39.5246C10.2909 39.422 10.0919 39.1345 10.1516 38.6416C10.2511 38.005 10.5097 37.4506 11.007 36.9988C11.6834 36.3828 12.5189 36.3417 13.3544 36.2801C14.17 36.2185 14.7469 36.547 15.1448 37.2863C15.2642 37.5122 15.3835 37.7381 15.5825 37.9229C15.9604 38.2515 16.7164 38.3952 16.9949 38.1693C17.3927 37.8408 17.4723 37.3274 17.1739 36.6908C16.9551 36.1774 16.5771 35.8078 16.1395 35.4792C14.8862 34.5346 13.434 34.2676 11.9221 34.4114C9.99247 34.5757 8.48059 35.4176 7.62518 37.3068C7.16764 38.2925 7.26711 39.155 7.94347 39.9969C8.48059 40.6746 9.17685 41.0442 9.99247 41.2907C11.4845 41.763 13.0162 41.763 14.548 41.8246C14.9658 41.8451 15.2841 41.9683 15.5825 42.2353C16.219 42.8103 16.5572 43.6111 16.9352 44.3709C17.1739 44.8638 17.1142 44.9665 16.5771 45.0486C16.0599 45.1102 15.7018 45.3772 15.5029 45.87C15.3636 46.2191 15.2841 46.5887 15.2443 46.9584C15.1448 47.6155 15.6421 48.1289 16.2787 48.1083C15.8411 48.4574 15.3238 48.6012 14.7668 48.6423C13.8915 48.7039 13.0958 48.3548 12.3001 48.0673C11.8226 47.903 11.5441 47.4307 11.564 46.8146C11.6038 46.0959 11.8624 45.4798 12.2006 44.8843C12.5388 44.2683 12.3598 43.837 11.7033 43.5906C11.385 43.4674 11.0667 43.4879 10.7484 43.5701C9.83333 43.7754 9.25642 44.4531 8.69941 45.1513C8.22198 45.7468 8.06283 46.4861 8.36123 47.2048C8.79888 48.2726 9.55482 49.1146 10.5893 49.6279C11.7829 50.2029 13.056 50.5726 14.3491 50.819C15.9007 51.127 17.1739 50.6136 18.4272 49.7512C18.5664 49.6485 18.6659 49.5047 18.9643 49.4226C18.4869 50.6136 18.2879 51.7636 18.2282 52.9341C18.1885 53.6528 18.2879 54.31 18.9046 54.7617C19.3622 55.1108 20.0783 54.9671 20.3369 54.4742C20.5359 54.1046 20.7348 53.7144 20.8542 53.3037C21.3515 51.6199 21.8488 49.9154 22.0875 48.1699C22.1273 47.903 22.2467 47.7182 22.5451 47.7387C23.0424 47.7798 23.5596 47.7387 24.057 47.7182C24.3156 47.6976 24.5742 47.7592 24.6537 48.0673C24.9124 48.9708 25.3301 49.7922 25.529 50.7163C25.8076 52.0716 26.4839 53.2421 27.0608 54.4537C27.22 54.7823 27.4587 55.0698 27.7173 55.3367C28.0953 55.7269 28.5727 55.7474 29.0303 55.6447C29.3883 55.5626 29.6072 55.2135 29.5873 54.8439C29.5674 53.776 29.4679 52.7082 29.0899 51.7225C28.7517 50.7984 28.5528 49.8333 28.1351 48.9297C28.0157 48.6833 27.9759 48.3958 27.9162 48.1289C27.8566 47.8208 27.956 47.6771 28.2743 47.6771C30.7013 47.6976 33.1481 47.636 35.5751 47.7182C36.3509 47.7387 36.3509 47.7592 36.3708 48.5396C36.3708 50.6752 36.3708 52.7904 36.3708 54.926C36.3708 56.0554 36.4106 57.1849 36.4305 58.3349C36.4504 59.3821 36.3907 60.4294 36.53 61.4562C36.5499 61.5178 36.5698 61.5589 36.6096 61.5999C36.6294 61.641 36.6692 61.6615 36.6891 61.7026C36.7687 62.0517 36.5897 62.216 36.2714 62.3392C36.2117 62.2981 36.152 62.2776 36.1122 62.2571C34.7993 61.8874 33.4664 62.2571 32.1535 62.0723ZM23.5795 44.6174C22.9429 44.7816 22.744 44.5968 22.8634 43.9397C22.923 43.529 22.9628 43.1183 23.0225 42.5844C23.4403 43.2004 23.6392 43.7344 23.7188 44.3299C23.7188 44.4531 23.7784 44.5763 23.5795 44.6174Z" fill="black"/>
<path d="M9.87287 27.8408C10.0718 27.8203 10.211 27.8408 10.1912 28.1283C10.1912 28.539 10.2309 28.9497 10.2906 29.3399C10.3901 30.0176 10.5094 30.6952 11.2057 30.9827C11.9815 31.2908 12.1805 31.3318 12.3396 30.3872C12.4391 29.7506 12.5187 29.114 12.3595 28.4364C12.26 28.0462 12.3595 27.8819 12.5982 27.9025C13.3144 27.9435 14.0504 27.8203 14.7666 27.8819C15.801 27.9641 16.8156 27.8819 17.8301 27.8614C18.1882 27.8614 18.5463 27.9435 18.9243 27.923C19.0237 27.923 18.9442 28.3542 19.0635 28.5801C19.163 28.7649 18.9243 28.9087 18.964 29.0935C19.0635 30.0176 19.163 30.9211 19.2227 31.8452C19.2823 32.8309 19.2823 33.8166 19.4216 34.8023C19.4813 35.1924 19.3221 35.6853 19.8195 35.9522C20.277 36.2192 21.4507 36.2397 21.7889 35.829C22.0475 35.5005 22.4056 35.213 22.2663 34.6175C22.1072 34.0219 22.2265 33.3648 22.1669 32.7487C22.1072 32.1327 22.2066 31.4345 22.1669 30.839C22.1271 30.0997 22.1271 29.2988 21.9281 28.539C21.769 27.9025 21.8685 27.8614 22.5249 27.8614C22.704 27.8614 22.883 27.8614 23.062 27.8614C23.7583 27.923 24.4347 27.8614 25.0315 27.4301C25.2503 27.2659 25.31 27.1016 25.2105 26.8757C24.932 26.3418 24.5142 26.0338 23.8976 25.9516C23.3008 25.8489 22.704 25.8695 22.1072 25.8489C21.948 25.8489 21.8685 25.8284 21.8685 25.6025C21.8685 25.1507 21.8486 24.6168 21.7292 24.2472C21.391 23.0972 21.7292 21.8856 21.2916 20.7357C21.0528 20.0786 20.7544 19.6884 20.098 19.8116C19.9985 19.8321 19.9189 19.8937 19.7996 19.8527C19.2028 19.6473 18.6259 20.0375 18.6259 20.6535C18.6259 22.2553 18.7054 23.8365 18.8447 25.4177C18.8646 25.623 18.9044 25.8079 18.5662 25.7873C17.7705 25.7668 16.9946 25.8079 16.1989 25.8284C15.065 25.8489 13.9311 25.8284 12.8171 25.9311C12.5187 25.9516 12.1606 25.9516 12.2402 25.3972C12.3197 24.7811 12.2203 24.1651 12.2203 23.549C12.2004 21.9267 12.0611 20.3044 12.0611 18.6822C12.0611 17.8197 12.0412 16.9367 11.9418 16.0947C11.7428 14.2876 11.902 12.4805 11.7229 10.6735C11.6235 9.7083 11.6633 8.72261 11.2654 7.81906C11.1062 7.44943 10.7482 7.20301 10.3901 7.22354C10.0519 7.24408 9.99222 7.65478 9.93255 8.00388C9.79329 8.90743 9.89276 9.81097 9.89276 10.7145C9.87287 12.2136 9.95244 13.6921 9.97233 15.1912C10.0121 16.7313 10.0519 18.2509 10.0519 19.7911C10.0519 21.7624 10.2707 23.7133 10.1116 25.6847C10.0917 25.89 10.1514 25.9516 9.93255 25.9516C9.13682 25.9516 8.34109 25.9721 7.54536 26.0132C6.869 26.0338 6.17273 26.0543 5.61572 26.5882C5.33722 26.8552 5.35711 27.081 5.65551 27.3275C6.19263 27.7792 6.869 27.8408 7.50558 27.8614C8.28141 27.8408 9.07714 27.9641 9.87287 27.8408Z" fill="black"/>
<path d="M19.919 16.1358C20.0781 16.1153 20.098 16.1974 20.1378 16.2795C20.3367 16.7929 20.655 16.3822 20.8938 16.3412C21.1325 16.3001 21.2916 16.0537 21.2319 15.7456C21.1524 15.3349 20.4362 14.7189 20.0185 14.7189C19.5211 14.7189 19.1233 14.9858 19.1829 15.3349C19.2426 15.7662 19.4018 16.1974 19.919 16.1358Z" fill="black"/>
</svg>
