<svg width="59" height="7" viewBox="0 0 59 7" fill="none" xmlns="http://www.w3.org/2000/svg">
<path d="M54.666 3.33921C55.8914 3.33921 57.0877 3.20179 58.3131 3.06436C58.5465 3.06436 58.8966 3.40792 58.9842 2.58337C59.0717 1.75882 58.7799 1.20912 58.5173 0.796839C58.2839 0.384563 58.0213 0.521988 57.7587 0.521988C56.5042 0.590701 55.2787 0.659414 54.0241 0.865552L52.1568 1.00298C42.762 1.41525 33.3672 2.17109 23.9723 2.65208C17.4368 3.13307 10.8429 3.33921 4.33651 4.23248H2.49839C1.71062 4.02634 1.01038 4.57604 0.280969 4.64475C-0.127502 4.64475 -0.0107961 5.4006 0.135087 5.81287C0.339322 6.29386 0.601911 6.5 0.922853 6.5C1.38968 6.43129 1.88568 6.43129 2.3525 6.36257L54.666 3.33921Z" fill="#3161EC"/>
</svg>
