<?xml version="1.0" standalone="no"?>
<!DOCTYPE svg PUBLIC "-//W3C//DTD SVG 20010904//EN"
 "http://www.w3.org/TR/2001/REC-SVG-20010904/DTD/svg10.dtd">
<svg version="1.0" xmlns="http://www.w3.org/2000/svg"
 width="500.000000pt" height="500.000000pt" viewBox="0 0 500.000000 500.000000"
 preserveAspectRatio="xMidYMid meet">
<metadata>
Created by potrace 1.14, written by Peter Selinger 2001-2017
</metadata>
<g transform="translate(0.000000,500.000000) scale(0.100000,-0.100000)"
fill="#000000" stroke="none">
<path d="M2275 4989 c-204 -19 -457 -76 -644 -145 -230 -85 -512 -246 -707
-404 -105 -85 -284 -265 -368 -370 -314 -391 -500 -856 -546 -1360 -64 -716
205 -1458 709 -1960 307 -304 630 -503 1026 -629 153 -49 388 -98 510 -105 50
-3 125 -8 167 -11 71 -5 77 -4 83 16 5 16 10 18 18 10 9 -9 8 -14 -2 -20 -13
-8 1 -9 87 -3 14 1 22 9 22 20 1 16 1 16 14 0 16 -22 34 -22 183 -3 203 27
314 53 508 122 93 32 374 162 402 185 9 8 2 20 -30 50 -86 81 -205 176 -297
236 -52 34 -118 80 -147 102 -28 22 -61 40 -72 40 -16 0 -21 6 -21 28 0 19 -3
23 -9 13 -6 -9 -15 -11 -27 -6 -11 5 -25 7 -31 6 -7 -1 -13 3 -13 9 0 5 -8 10
-17 10 -20 0 -126 51 -131 62 -2 5 -14 5 -27 2 -18 -4 -31 1 -51 23 -17 17
-25 21 -21 10 5 -12 1 -17 -11 -17 -36 0 -84 20 -102 42 -15 18 -19 20 -20 7
0 -22 -16 -26 -65 -19 -29 4 -35 7 -22 12 9 4 19 8 22 8 7 1 55 50 55 57 0 3
-11 -2 -24 -11 -14 -9 -33 -13 -42 -9 -12 4 -15 2 -12 -8 3 -8 -7 -19 -21 -27
-20 -11 -30 -11 -49 0 -14 7 -26 8 -30 3 -10 -14 -102 -17 -118 -4 -7 6 -18 8
-24 4 -6 -4 -17 -2 -25 5 -10 9 -19 9 -36 0 -17 -9 -23 -9 -29 0 -5 8 -10 9
-14 2 -3 -6 -14 -11 -24 -11 -35 0 -128 -10 -142 -15 -8 -3 -22 -5 -30 -4 -8
1 -49 -1 -90 -5 -41 -4 -106 -9 -145 -12 -187 -13 -231 -18 -241 -26 -15 -12
-46 34 -49 72 -1 16 -7 35 -14 43 -7 8 -15 31 -18 53 -3 21 -11 44 -16 52 -6
7 -12 18 -13 25 -1 6 -16 70 -33 141 -17 72 -36 151 -42 177 -12 53 -2 82 32
93 11 4 18 9 16 12 -3 2 -15 0 -26 -7 -31 -16 -44 -3 -24 26 11 17 13 28 6 32
-6 4 -14 27 -18 51 -7 41 -6 44 14 38 13 -3 19 -1 14 6 -4 6 2 8 16 4 17 -4
21 -2 17 9 -3 8 0 14 6 14 6 0 9 2 6 5 -3 3 -17 1 -32 -5 -20 -7 -30 -7 -39 2
-14 15 -22 202 -9 194 5 -3 7 5 5 18 -3 13 0 27 6 30 19 12 13 60 -10 74 -15
10 -18 16 -10 26 6 7 8 15 6 18 -3 3 0 18 6 34 6 16 13 54 15 84 1 30 5 71 8
90 6 34 20 365 17 385 -1 6 -4 26 -6 45 -6 47 -15 92 -22 110 -3 8 -7 20 -8
25 -1 6 -3 12 -5 15 -5 9 -10 43 -14 95 -5 58 22 114 79 163 33 30 120 53 175
47 14 -1 40 -3 59 -4 27 -1 31 -4 22 -14 -14 -17 -2 -30 14 -17 15 13 108 -37
102 -54 -3 -8 4 -11 23 -8 16 2 39 -3 54 -13 29 -19 193 -28 199 -10 2 6 9 5
19 -2 11 -10 17 -10 27 0 10 9 11 8 6 -5 -4 -11 -2 -18 4 -18 6 0 11 5 11 10
0 13 57 13 65 0 4 -6 12 -7 18 -3 18 12 71 12 84 1 7 -5 16 -7 22 -4 5 3 38
-3 73 -14 34 -11 71 -20 81 -20 17 0 24 -26 8 -32 -5 -1 -2 -9 6 -17 12 -11
14 -10 11 5 -2 11 4 20 14 22 14 3 16 -1 11 -15 -5 -15 -3 -16 8 -5 19 18 42
15 90 -13 24 -14 50 -25 58 -25 7 0 33 -13 58 -30 24 -16 51 -30 59 -30 17 0
54 -22 109 -66 22 -17 62 -41 88 -53 27 -12 46 -25 43 -28 -3 -3 16 -16 42
-28 26 -12 53 -29 61 -38 7 -10 19 -17 25 -17 7 0 48 -34 92 -75 43 -41 81
-75 84 -75 15 0 180 -181 185 -203 4 -14 16 -28 28 -31 19 -5 20 -8 7 -16 -12
-8 -11 -10 8 -10 13 0 22 -6 22 -15 0 -9 8 -19 18 -22 9 -4 23 -15 30 -25 7
-10 19 -18 26 -18 7 0 40 -33 73 -73 34 -39 72 -85 87 -100 14 -15 26 -34 26
-41 0 -8 7 -17 16 -20 22 -8 8 -25 -16 -19 -21 6 -28 -11 -10 -22 18 -11 -8
-34 -32 -27 -14 3 -19 1 -14 -6 4 -7 1 -12 -8 -12 -22 0 -28 -16 -30 -80 -1
-32 -7 -65 -14 -73 -17 -20 -24 -98 -10 -114 7 -9 7 -13 -1 -13 -6 0 -11 -18
-11 -44 0 -25 -4 -48 -10 -51 -18 -11 -11 -35 11 -35 11 0 17 -5 14 -10 -4 -6
-11 -8 -16 -5 -15 10 -23 -24 -9 -40 6 -8 8 -20 4 -26 -4 -7 -6 -33 -5 -58 6
-97 7 -156 4 -163 -7 -14 -32 4 -26 18 3 9 0 12 -9 9 -22 -9 -11 -55 13 -55
22 0 34 -16 17 -23 -9 -4 -9 -8 -3 -14 6 -4 11 -48 13 -97 4 -99 14 -136 38
-136 14 0 14 -2 3 -16 -11 -14 -11 -18 1 -28 8 -6 16 -24 16 -41 3 -57 11
-107 20 -114 5 -3 17 -29 26 -58 12 -38 13 -54 4 -64 -8 -9 -8 -10 0 -6 7 4
19 -5 29 -19 16 -25 17 -25 43 -8 154 100 408 346 542 525 172 231 287 446
371 699 95 286 132 509 132 810 0 224 -17 380 -64 575 -17 72 -33 140 -36 153
-7 28 -15 28 -51 -3 -17 -14 -39 -25 -50 -25 -12 0 -23 -4 -27 -10 -3 -5 -12
-7 -20 -3 -8 3 -15 0 -15 -7 0 -9 -25 -11 -92 -8 -96 3 -159 25 -208 70 -10
10 -26 18 -33 18 -8 0 -20 6 -26 14 -6 8 -24 16 -39 19 -15 3 -54 12 -87 20
-33 9 -62 14 -64 12 -2 -3 -16 4 -31 15 -15 11 -35 17 -47 14 -12 -3 -33 2
-47 11 -15 10 -29 15 -32 12 -4 -3 -23 4 -43 16 -49 30 -92 49 -99 42 -3 -3
-14 3 -24 12 -13 11 -22 13 -29 6 -15 -15 37 -113 105 -198 31 -38 69 -95 84
-125 29 -59 31 -100 23 -355 -2 -55 0 -118 3 -140 7 -44 15 -103 15 -123 1 -7
5 -11 10 -7 5 3 12 1 16 -5 4 -6 11 -8 16 -5 5 4 9 -1 9 -10 0 -12 -6 -15 -19
-10 -11 3 -22 1 -26 -5 -3 -5 1 -10 9 -10 9 0 16 -4 16 -10 0 -5 -7 -10 -15
-10 -8 0 -26 -18 -40 -41 -28 -43 -74 -69 -124 -69 -32 0 -67 34 -77 77 -4 13
-11 20 -17 16 -7 -4 -8 0 -3 12 6 17 -5 67 -40 175 -8 25 -14 55 -14 67 0 12
-4 24 -9 28 -5 3 -13 20 -16 38 -4 17 -13 46 -20 62 -21 49 -55 158 -51 163 3
2 -4 13 -15 25 -10 11 -19 26 -19 32 0 6 -9 28 -20 50 -11 22 -20 46 -20 55 0
9 -7 25 -15 36 -8 10 -15 28 -15 39 0 11 -7 29 -15 39 -8 11 -15 30 -15 42 0
13 -5 26 -10 29 -6 3 -7 17 -4 31 4 16 2 24 -6 24 -9 0 -11 12 -7 40 4 29 2
40 -8 40 -7 0 -15 5 -17 12 -3 7 -38 -14 -86 -50 -46 -34 -88 -62 -94 -62 -6
0 -55 -45 -109 -99 -112 -112 -173 -149 -257 -157 -31 -3 -64 -12 -72 -19 -42
-35 -200 -65 -280 -52 -64 9 -90 29 -90 68 0 29 6 35 90 89 25 16 54 37 65 47
11 11 27 22 35 26 64 29 196 130 291 220 62 59 119 107 126 107 7 0 13 4 13 8
0 5 17 17 37 28 53 27 133 84 133 95 0 5 -12 15 -27 21 -16 7 -42 23 -59 35
-17 13 -37 23 -44 23 -7 0 -50 24 -97 53 -47 28 -126 76 -177 106 -50 29 -113
70 -141 90 -27 20 -72 52 -100 70 -57 38 -225 208 -225 227 0 35 94 45 165 18
22 -8 48 -17 58 -19 23 -5 125 -57 177 -90 22 -14 45 -25 52 -25 7 -1 49 -23
93 -50 44 -27 127 -72 185 -101 58 -29 119 -63 137 -76 17 -12 36 -23 42 -23
15 0 124 -54 159 -79 17 -11 32 -21 34 -21 1 0 2 23 2 52 -1 28 5 67 13 87 9
20 19 65 24 101 18 140 22 160 29 160 4 0 11 21 15 47 4 26 16 66 28 88 11 22
23 51 25 64 2 14 9 36 16 50 21 41 53 114 60 136 5 17 -2 25 -39 43 -47 23
-49 22 -59 -20 -3 -16 -11 -28 -16 -28 -6 0 -10 -7 -10 -15 0 -19 -7 -19 -25
-1 -12 12 -11 21 10 60 l24 46 -34 15 c-116 50 -105 48 -105 23 1 -45 20 -210
26 -220 7 -11 53 40 54 60 0 10 5 10 20 2 25 -13 25 -21 3 -46 -51 -58 -62
-97 -63 -215 0 -125 -7 -225 -15 -240 -4 -5 -14 -9 -23 -8 -16 0 -16 1 -1 11
14 9 15 17 6 42 -5 17 -19 41 -30 53 -20 22 -26 47 -29 105 -1 18 -5 25 -14
21 -9 -3 -14 2 -14 16 0 12 -7 24 -15 27 -10 4 -13 13 -10 25 5 14 2 17 -9 13
-18 -7 -21 7 -6 22 7 7 8 19 1 37 -18 46 3 29 25 -21 12 -26 29 -64 38 -84 9
-20 19 -50 22 -67 12 -57 24 -43 23 26 0 37 -7 118 -15 178 -7 61 -19 146 -24
189 -6 44 -15 85 -21 92 -6 7 -8 17 -5 23 3 5 -2 12 -12 16 -330 131 -739 188
-1107 154z m-1065 -759 c0 -5 -5 -10 -11 -10 -5 0 -7 5 -4 10 3 6 8 10 11 10
2 0 4 -4 4 -10z m2250 -141 c0 -6 -4 -7 -10 -4 -5 3 -10 11 -10 16 0 6 5 7 10
4 6 -3 10 -11 10 -16z m-14 -86 c-11 -11 -17 4 -9 23 7 18 8 18 11 1 2 -10 1
-21 -2 -24z m-2766 -243 c0 -5 -2 -10 -4 -10 -3 0 -8 5 -11 10 -3 6 -1 10 4
10 6 0 11 -4 11 -10z m600 -5 c7 -9 8 -15 2 -15 -5 0 -12 7 -16 15 -3 8 -4 15
-2 15 2 0 9 -7 16 -15z m230 -49 c0 -3 -4 -8 -10 -11 -5 -3 -10 -1 -10 4 0 6
5 11 10 11 6 0 10 -2 10 -4z m-440 -96 c0 -5 -5 -10 -11 -10 -5 0 -7 5 -4 10
3 6 8 10 11 10 2 0 4 -4 4 -10z m-285 -200 c3 -5 -1 -10 -10 -10 -9 0 -13 5
-10 10 3 6 8 10 10 10 2 0 7 -4 10 -10z m-285 -340 c0 -5 -7 -10 -15 -10 -8 0
-15 5 -15 10 0 6 7 10 15 10 8 0 15 -4 15 -10z m30 -30 c0 -5 -2 -10 -4 -10
-3 0 -8 5 -11 10 -3 6 -1 10 4 10 6 0 11 -4 11 -10z m50 -44 c0 -3 -4 -8 -10
-11 -5 -3 -10 -1 -10 4 0 6 5 11 10 11 6 0 10 -2 10 -4z m40 -26 c0 -5 -4 -10
-10 -10 -5 0 -10 5 -10 10 0 6 5 10 10 10 6 0 10 -4 10 -10z m-55 -20 c3 -5 1
-10 -4 -10 -6 0 -11 5 -11 10 0 6 2 10 4 10 3 0 8 -4 11 -10z m2375 -70 c0 -5
-4 -10 -10 -10 -5 0 -10 5 -10 10 0 6 5 10 10 10 6 0 10 -4 10 -10z m600 -90
c0 -5 -2 -10 -4 -10 -3 0 -8 5 -11 10 -3 6 -1 10 4 10 6 0 11 -4 11 -10z m545
-380 c3 -6 -1 -13 -10 -16 -19 -8 -30 0 -20 15 8 14 22 14 30 1z m-273 -35 c0
-5 -5 -11 -11 -13 -6 -2 -11 4 -11 13 0 9 5 15 11 13 6 -2 11 -8 11 -13z m238
-61 c0 -14 -3 -14 -15 -4 -8 7 -15 14 -15 16 0 2 7 4 15 4 8 0 15 -7 15 -16z
m250 -69 c10 -12 10 -15 -4 -15 -9 0 -16 7 -16 15 0 8 2 15 4 15 2 0 9 -7 16
-15z m-345 -395 c3 -5 1 -10 -4 -10 -6 0 -11 5 -11 10 0 6 2 10 4 10 3 0 8 -4
11 -10z m-35 -34 c0 -3 -4 -8 -10 -11 -5 -3 -10 -1 -10 4 0 6 5 11 10 11 6 0
10 -2 10 -4z m60 -17 c0 -6 -4 -7 -10 -4 -5 3 -10 11 -10 16 0 6 5 7 10 4 6
-3 10 -11 10 -16z m40 -109 c0 -5 -4 -10 -10 -10 -5 0 -10 5 -10 10 0 6 5 10
10 10 6 0 10 -4 10 -10z m80 -165 c-12 -15 -30 -12 -30 5 0 5 7 7 15 4 8 -4
15 -1 15 7 0 7 3 9 6 6 4 -4 1 -13 -6 -22z m-220 -165 c0 -5 -4 -10 -10 -10
-5 0 -10 5 -10 10 0 6 5 10 10 10 6 0 10 -4 10 -10z m-30 -220 c0 -5 -5 -10
-11 -10 -5 0 -7 5 -4 10 3 6 8 10 11 10 2 0 4 -4 4 -10z m-1645 -320 c3 -5 2
-10 -4 -10 -5 0 -13 5 -16 10 -3 6 -2 10 4 10 5 0 13 -4 16 -10z m-171 -125
c-4 -8 -11 -15 -16 -15 -6 0 -5 6 2 15 7 8 14 15 16 15 2 0 1 -7 -2 -15z
m1873 -17 c-3 -8 -6 -5 -6 6 -1 11 2 17 5 13 3 -3 4 -12 1 -19z m-1427 2 c0
-5 -7 -10 -15 -10 -8 0 -15 5 -15 10 0 6 7 10 15 10 8 0 15 -4 15 -10z m1580
-92 c0 -17 -18 -44 -24 -37 -8 7 5 49 15 49 5 0 9 -6 9 -12z m-1365 -107 c17
-7 16 -9 -13 -16 -37 -8 -55 1 -32 15 17 11 18 11 45 1z m570 -28 c18 -14 18
-15 2 -9 -10 3 -25 6 -33 6 -9 0 -12 5 -9 10 8 14 16 12 40 -7z m-495 -213 c0
-13 -7 -20 -20 -20 -11 0 -20 5 -20 11 0 5 5 7 10 4 6 -3 10 1 10 9 0 9 5 16
10 16 6 0 10 -9 10 -20z m-22 -88 c-28 -5 -44 13 -27 31 11 12 16 11 30 -7 17
-20 17 -21 -3 -24z m162 38 c0 -5 -4 -10 -10 -10 -5 0 -10 5 -10 10 0 6 5 10
10 10 6 0 10 -4 10 -10z m-95 -30 c3 -5 13 -6 22 -3 11 4 14 3 9 -5 -10 -17
-41 -15 -56 3 -10 12 -10 15 3 15 9 0 18 -4 22 -10z m154 -19 c7 -5 9 -11 5
-14 -5 -3 -15 1 -22 9 -14 16 -5 18 17 5z m54 -15 c4 -10 1 -13 -9 -9 -15 6
-19 23 -5 23 5 0 11 -7 14 -14z m-453 -76 c0 -5 -4 -10 -10 -10 -5 0 -10 5
-10 10 0 6 5 10 10 10 6 0 10 -4 10 -10z m30 0 c0 -5 -5 -10 -11 -10 -5 0 -7
5 -4 10 3 6 8 10 11 10 2 0 4 -4 4 -10z m145 -10 c3 -5 -1 -10 -10 -10 -9 0
-13 5 -10 10 3 6 8 10 10 10 2 0 7 -4 10 -10z"/>
<path d="M3980 4430 c-11 -58 -11 -85 0 -154 14 -90 10 -219 -8 -251 -6 -11
-29 -57 -51 -103 -22 -45 -49 -92 -61 -104 -31 -34 -25 -46 28 -53 26 -3 61
-7 78 -9 18 -3 37 1 43 7 8 8 11 8 11 0 0 -6 33 -16 73 -23 168 -26 210 -40
288 -95 25 -18 81 -45 125 -60 98 -34 105 -37 171 -91 52 -43 122 -84 142 -84
13 0 -45 137 -110 260 -114 214 -265 418 -443 595 -95 95 -255 235 -269 235
-2 0 -10 -32 -17 -70z m316 -241 c3 -6 1 -16 -6 -22 -10 -9 -11 -9 -5 2 4 8 2
17 -6 22 -9 6 -10 9 -2 9 6 0 15 -5 19 -11z m-256 -269 c0 -5 -4 -10 -10 -10
-5 0 -10 5 -10 10 0 6 5 10 10 10 6 0 10 -4 10 -10z m-90 -110 c0 -5 -4 -10
-10 -10 -5 0 -10 5 -10 10 0 6 5 10 10 10 6 0 10 -4 10 -10z m10 -30 c0 -5 -5
-10 -11 -10 -5 0 -7 5 -4 10 3 6 8 10 11 10 2 0 4 -4 4 -10z m460 -50 c0 -5
-4 -10 -10 -10 -5 0 -10 5 -10 10 0 6 5 10 10 10 6 0 10 -4 10 -10z"/>
<path d="M3846 4021 c-4 -7 -5 -15 -2 -18 9 -9 19 4 14 18 -4 11 -6 11 -12 0z"/>
<path d="M3810 3949 c0 -5 5 -7 10 -4 6 3 10 8 10 11 0 2 -4 4 -10 4 -5 0 -10
-5 -10 -11z"/>
<path d="M3790 3909 c0 -5 5 -7 10 -4 6 3 10 8 10 11 0 2 -4 4 -10 4 -5 0 -10
-5 -10 -11z"/>
<path d="M3450 3670 c0 -5 5 -10 10 -10 6 0 10 5 10 10 0 6 -4 10 -10 10 -5 0
-10 -4 -10 -10z"/>
<path d="M3890 3645 c0 -8 7 -15 15 -15 8 0 15 4 15 9 0 5 -7 11 -15 15 -9 3
-15 0 -15 -9z"/>
<path d="M3890 3556 c0 -9 5 -16 10 -16 6 0 10 4 10 9 0 6 -4 13 -10 16 -5 3
-10 -1 -10 -9z"/>
<path d="M3230 3400 c-8 -5 -11 -12 -7 -16 4 -4 13 -2 19 4 15 15 7 24 -12 12z"/>
<path d="M3605 3380 c-3 -5 -1 -10 4 -10 6 0 11 5 11 10 0 6 -2 10 -4 10 -3 0
-8 -4 -11 -10z"/>
<path d="M3574 3316 c-4 -11 0 -24 10 -34 16 -16 17 -15 10 13 -9 38 -12 42
-20 21z"/>
<path d="M3605 3231 c-3 -5 -1 -12 5 -16 5 -3 10 1 10 9 0 18 -6 21 -15 7z"/>
<path d="M1637 3153 c-4 -3 -7 -11 -7 -17 0 -6 5 -5 12 2 6 6 9 14 7 17 -3 3
-9 2 -12 -2z"/>
<path d="M2130 3030 c0 -5 5 -10 11 -10 5 0 7 5 4 10 -3 6 -8 10 -11 10 -2 0
-4 -4 -4 -10z"/>
<path d="M2370 3019 c0 -5 5 -7 10 -4 6 3 10 8 10 11 0 2 -4 4 -10 4 -5 0 -10
-5 -10 -11z"/>
<path d="M1980 2990 c0 -5 5 -10 10 -10 6 0 10 5 10 10 0 6 -4 10 -10 10 -5 0
-10 -4 -10 -10z"/>
<path d="M1522 2968 c5 -15 28 -23 28 -10 0 5 -7 13 -16 16 -10 4 -14 1 -12
-6z"/>
<path d="M2030 2972 c0 -12 19 -26 26 -19 2 2 -2 10 -11 17 -9 8 -15 8 -15 2z"/>
<path d="M2460 2900 c0 -5 5 -10 11 -10 5 0 7 5 4 10 -3 6 -8 10 -11 10 -2 0
-4 -4 -4 -10z"/>
<path d="M2001 2844 c0 -11 3 -14 6 -6 3 7 2 16 -1 19 -3 4 -6 -2 -5 -13z"/>
<path d="M2931 2784 c0 -11 3 -14 6 -6 3 7 2 16 -1 19 -3 4 -6 -2 -5 -13z"/>
<path d="M2900 2559 c0 -5 5 -7 10 -4 6 3 10 8 10 11 0 2 -4 4 -10 4 -5 0 -10
-5 -10 -11z"/>
<path d="M2366 2525 c4 -8 8 -15 10 -15 2 0 4 7 4 15 0 8 -4 15 -10 15 -5 0
-7 -7 -4 -15z"/>
<path d="M3982 2480 c0 -14 2 -19 5 -12 2 6 2 18 0 25 -3 6 -5 1 -5 -13z"/>
<path d="M3901 2424 c0 -11 3 -14 6 -6 3 7 2 16 -1 19 -3 4 -6 -2 -5 -13z"/>
<path d="M1550 2300 c0 -5 5 -10 11 -10 5 0 7 5 4 10 -3 6 -8 10 -11 10 -2 0
-4 -4 -4 -10z"/>
<path d="M1550 2220 c0 -5 5 -10 10 -10 6 0 10 5 10 10 0 6 -4 10 -10 10 -5 0
-10 -4 -10 -10z"/>
<path d="M1566 2176 c10 -8 21 -12 24 -10 5 6 -21 24 -34 24 -6 0 -1 -6 10
-14z"/>
<path d="M3090 2155 c-18 -21 -3 -32 16 -13 10 9 12 18 6 22 -5 3 -15 -1 -22
-9z"/>
<path d="M3555 2150 c-3 -5 1 -10 10 -10 9 0 13 5 10 10 -3 6 -8 10 -10 10 -2
0 -7 -4 -10 -10z"/>
<path d="M1600 2141 c0 -5 5 -13 10 -16 6 -3 10 -2 10 4 0 5 -4 13 -10 16 -5
3 -10 2 -10 -4z"/>
<path d="M1430 2106 c0 -31 6 -34 13 -6 3 11 1 23 -4 26 -5 3 -9 -6 -9 -20z"/>
<path d="M3650 2115 c7 -9 15 -13 17 -11 7 7 -7 26 -19 26 -6 0 -6 -6 2 -15z"/>
<path d="M3740 2091 c0 -6 5 -13 10 -16 6 -3 10 1 10 9 0 9 -4 16 -10 16 -5 0
-10 -4 -10 -9z"/>
<path d="M3090 2086 c0 -2 7 -9 15 -16 13 -11 14 -10 9 4 -5 14 -24 23 -24 12z"/>
<path d="M1460 2059 c0 -5 5 -7 10 -4 6 3 10 8 10 11 0 2 -4 4 -10 4 -5 0 -10
-5 -10 -11z"/>
<path d="M3495 2040 c-4 -6 -3 -16 3 -22 6 -6 12 -6 17 2 4 6 3 16 -3 22 -6 6
-12 6 -17 -2z"/>
<path d="M3760 2039 c0 -5 5 -7 10 -4 6 3 10 8 10 11 0 2 -4 4 -10 4 -5 0 -10
-5 -10 -11z"/>
<path d="M3630 2030 c0 -5 5 -10 11 -10 5 0 7 5 4 10 -3 6 -8 10 -11 10 -2 0
-4 -4 -4 -10z"/>
<path d="M2970 1950 c0 -5 5 -10 10 -10 6 0 10 5 10 10 0 6 -4 10 -10 10 -5 0
-10 -4 -10 -10z"/>
<path d="M2460 1940 c0 -5 5 -10 10 -10 6 0 10 5 10 10 0 6 -4 10 -10 10 -5 0
-10 -4 -10 -10z"/>
<path d="M3623 1928 c-13 -6 -23 -18 -23 -27 1 -15 2 -15 13 0 7 8 21 21 32
27 25 14 8 14 -22 0z"/>
<path d="M3760 1929 c0 -5 5 -7 10 -4 6 3 10 8 10 11 0 2 -4 4 -10 4 -5 0 -10
-5 -10 -11z"/>
<path d="M2430 1889 c0 -5 5 -7 10 -4 6 3 10 8 10 11 0 2 -4 4 -10 4 -5 0 -10
-5 -10 -11z"/>
<path d="M3536 1884 c-8 -20 -8 -24 2 -24 4 0 8 9 9 20 2 24 -3 26 -11 4z"/>
<path d="M1480 1874 c0 -8 5 -12 10 -9 6 3 10 10 10 16 0 5 -4 9 -10 9 -5 0
-10 -7 -10 -16z"/>
<path d="M3850 1876 c0 -2 7 -7 16 -10 8 -3 12 -2 9 4 -6 10 -25 14 -25 6z"/>
<path d="M3760 1860 c0 -5 5 -10 10 -10 6 0 10 5 10 10 0 6 -4 10 -10 10 -5 0
-10 -4 -10 -10z"/>
<path d="M1420 1840 c0 -5 5 -10 11 -10 5 0 7 5 4 10 -3 6 -8 10 -11 10 -2 0
-4 -4 -4 -10z"/>
<path d="M1530 1800 c0 -19 3 -21 12 -12 9 9 9 15 0 24 -9 9 -12 7 -12 -12z"/>
<path d="M3765 1800 c-10 -11 -13 -20 -7 -20 6 0 16 9 22 20 6 11 9 20 7 20
-2 0 -12 -9 -22 -20z"/>
<path d="M3555 1800 c3 -5 8 -10 11 -10 2 0 4 5 4 10 0 6 -5 10 -11 10 -5 0
-7 -4 -4 -10z"/>
<path d="M1550 1750 c0 -5 5 -10 11 -10 5 0 7 5 4 10 -3 6 -8 10 -11 10 -2 0
-4 -4 -4 -10z"/>
<path d="M3485 1749 c-4 -6 -4 -13 -1 -16 8 -8 36 5 36 17 0 13 -27 13 -35 -1z"/>
<path d="M3542 1740 c-7 -11 -8 -20 -3 -20 9 0 24 30 18 36 -1 2 -8 -6 -15
-16z"/>
<path d="M3730 1749 c0 -5 5 -7 10 -4 6 3 10 8 10 11 0 2 -4 4 -10 4 -5 0 -10
-5 -10 -11z"/>
<path d="M3645 1740 c-3 -5 -1 -10 4 -10 6 0 11 5 11 10 0 6 -2 10 -4 10 -3 0
-8 -4 -11 -10z"/>
<path d="M1745 1700 c3 -5 8 -10 11 -10 2 0 4 5 4 10 0 6 -5 10 -11 10 -5 0
-7 -4 -4 -10z"/>
<path d="M2585 1689 c-10 -15 3 -25 16 -12 7 7 7 13 1 17 -6 3 -14 1 -17 -5z"/>
<path d="M3220 1690 c19 -13 30 -13 30 0 0 6 -10 10 -22 10 -19 0 -20 -2 -8
-10z"/>
<path d="M3720 1690 c0 -5 5 -10 10 -10 6 0 10 5 10 10 0 6 -4 10 -10 10 -5 0
-10 -4 -10 -10z"/>
<path d="M1435 1677 c-12 -10 -14 -16 -7 -21 7 -4 12 -18 12 -32 0 -16 4 -23
11 -18 6 3 9 19 7 35 -2 15 -2 28 1 27 20 -2 31 3 26 12 -9 14 -28 12 -50 -3z"/>
<path d="M3131 1676 c-8 -10 -8 -16 1 -24 10 -8 13 -4 14 14 2 28 1 29 -15 10z"/>
<path d="M3364 1666 c-8 -22 -2 -27 16 -16 12 7 12 12 3 21 -10 10 -14 9 -19
-5z"/>
<path d="M1530 1651 c0 -5 5 -13 10 -16 6 -3 10 -2 10 4 0 5 -4 13 -10 16 -5
3 -10 2 -10 -4z"/>
<path d="M3700 1645 c0 -8 2 -15 4 -15 2 0 6 7 10 15 3 8 1 15 -4 15 -6 0 -10
-7 -10 -15z"/>
<path d="M3440 1641 c0 -5 -15 -16 -32 -25 -33 -15 -33 -16 -6 -16 14 0 29 -6
32 -12 3 -7 3 -3 0 10 -4 15 0 24 10 28 18 7 22 24 6 24 -5 0 -10 -4 -10 -9z"/>
<path d="M3495 1640 c-3 -5 -3 -14 0 -20 8 -13 45 -13 45 0 0 5 -8 6 -17 3
-12 -5 -15 -2 -10 10 7 18 -8 24 -18 7z"/>
<path d="M3690 1604 c0 -10 -6 -14 -15 -10 -8 3 -15 0 -15 -5 0 -7 9 -9 23 -5
12 3 25 6 30 6 13 0 7 18 -8 24 -9 3 -15 0 -15 -10z"/>
<path d="M3100 1594 c0 -14 3 -14 15 -4 8 7 15 14 15 16 0 2 -7 4 -15 4 -8 0
-15 -7 -15 -16z"/>
<path d="M3230 1600 c0 -5 5 -10 10 -10 6 0 10 5 10 10 0 6 -4 10 -10 10 -5 0
-10 -4 -10 -10z"/>
<path d="M3730 1590 c0 -5 5 -10 11 -10 5 0 7 5 4 10 -3 6 -8 10 -11 10 -2 0
-4 -4 -4 -10z"/>
<path d="M1480 1579 c0 -5 5 -7 10 -4 6 3 10 8 10 11 0 2 -4 4 -10 4 -5 0 -10
-5 -10 -11z"/>
<path d="M1507 1551 c-9 -17 -12 -31 -7 -31 4 0 11 8 15 18 6 16 7 16 21 -2
18 -25 18 -16 0 19 l-14 26 -15 -30z"/>
<path d="M3455 1560 c-3 -5 -2 -10 4 -10 5 0 13 5 16 10 3 6 2 10 -4 10 -5 0
-13 -4 -16 -10z"/>
<path d="M3600 1562 c0 -5 7 -9 15 -9 8 0 15 4 15 9 0 4 -7 8 -15 8 -8 0 -15
-4 -15 -8z"/>
<path d="M3700 1550 c0 -5 5 -10 11 -10 5 0 7 5 4 10 -3 6 -8 10 -11 10 -2 0
-4 -4 -4 -10z"/>
<path d="M3666 1535 c4 -8 13 -15 21 -15 13 0 13 3 3 15 -7 8 -16 15 -21 15
-5 0 -6 -7 -3 -15z"/>
<path d="M3110 1520 c0 -5 5 -10 10 -10 6 0 10 5 10 10 0 6 -4 10 -10 10 -5 0
-10 -4 -10 -10z"/>
<path d="M3145 1520 c3 -5 8 -10 11 -10 2 0 4 5 4 10 0 6 -5 10 -11 10 -5 0
-7 -4 -4 -10z"/>
<path d="M3565 1520 c3 -5 11 -10 16 -10 6 0 7 5 4 10 -3 6 -11 10 -16 10 -6
0 -7 -4 -4 -10z"/>
<path d="M3725 1510 c-4 -6 -11 -8 -16 -5 -5 3 -7 0 -4 -7 3 -7 16 -13 29 -13
17 0 22 5 18 18 -5 19 -18 22 -27 7z"/>
<path d="M3615 1490 c3 -5 8 -10 11 -10 2 0 4 5 4 10 0 6 -5 10 -11 10 -5 0
-7 -4 -4 -10z"/>
<path d="M3151 1476 c-8 -9 -11 -19 -7 -23 9 -9 29 13 24 27 -2 8 -8 7 -17 -4z"/>
<path d="M3290 1481 c0 -6 -10 -16 -22 -21 -16 -6 -18 -9 -7 -9 19 -1 45 26
35 36 -3 3 -6 1 -6 -6z"/>
<path d="M1490 1470 c8 -5 20 -10 25 -10 6 0 3 5 -5 10 -8 5 -19 10 -25 10 -5
0 -3 -5 5 -10z"/>
<path d="M1528 1455 c-3 -14 -1 -25 3 -25 5 0 9 11 9 25 0 14 -2 25 -4 25 -2
0 -6 -11 -8 -25z"/>
<path d="M3220 1470 c0 -5 5 -10 11 -10 5 0 7 5 4 10 -3 6 -8 10 -11 10 -2 0
-4 -4 -4 -10z"/>
<path d="M3330 1470 c0 -5 5 -10 10 -10 6 0 10 5 10 10 0 6 -4 10 -10 10 -5 0
-10 -4 -10 -10z"/>
<path d="M3405 1470 c3 -5 8 -10 11 -10 2 0 4 5 4 10 0 6 -5 10 -11 10 -5 0
-7 -4 -4 -10z"/>
<path d="M3578 1463 c7 -3 16 -2 19 1 4 3 -2 6 -13 5 -11 0 -14 -3 -6 -6z"/>
<path d="M3665 1449 c3 -18 0 -29 -10 -33 -8 -3 -15 -10 -15 -16 0 -6 9 -2 20
8 17 16 19 23 10 43 -10 24 -10 24 -5 -2z"/>
<path d="M3706 1462 c5 -4 12 -11 15 -15 3 -5 9 -2 12 5 3 9 -3 14 -15 15 -11
1 -16 -1 -12 -5z"/>
<path d="M3110 1431 c0 -5 7 -14 15 -21 13 -10 15 -9 15 9 0 12 -6 21 -15 21
-8 0 -15 -4 -15 -9z"/>
<path d="M3593 1425 c-3 -9 -3 -19 1 -22 3 -4 6 1 6 10 0 8 6 18 13 20 9 4 9
6 -1 6 -7 1 -15 -6 -19 -14z"/>
<path d="M3186 1413 c-6 -14 -5 -15 5 -6 7 7 10 15 7 18 -3 3 -9 -2 -12 -12z"/>
<path d="M3530 1416 c0 -9 5 -16 10 -16 6 0 10 4 10 9 0 6 -4 13 -10 16 -5 3
-10 -1 -10 -9z"/>
<path d="M3715 1420 c4 -6 11 -8 16 -5 14 9 11 15 -7 15 -8 0 -12 -5 -9 -10z"/>
<path d="M1495 1410 c-3 -5 -1 -10 4 -10 6 0 11 5 11 10 0 6 -2 10 -4 10 -3 0
-8 -4 -11 -10z"/>
<path d="M1600 1410 c0 -5 -7 -10 -17 -10 -9 0 -13 -3 -10 -7 4 -3 2 -12 -4
-20 -14 -16 -14 -15 36 -17 34 -2 41 1 41 16 0 15 -5 18 -23 13 -25 -6 -30 4
-11 23 9 9 9 12 0 12 -7 0 -12 -4 -12 -10z"/>
<path d="M3301 1402 c-14 -26 -14 -32 1 -32 6 0 8 3 5 7 -4 3 -2 12 5 20 6 7
8 16 5 19 -3 3 -10 -3 -16 -14z"/>
<path d="M1514 1389 c-3 -6 -2 -15 4 -21 6 -6 11 -2 15 11 5 22 -7 29 -19 10z"/>
<path d="M3051 1384 c0 -11 3 -14 6 -6 3 7 2 16 -1 19 -3 4 -6 -2 -5 -13z"/>
<path d="M3545 1370 c-3 -5 -1 -10 4 -10 6 0 11 5 11 10 0 6 -2 10 -4 10 -3 0
-8 -4 -11 -10z"/>
<path d="M3600 1365 c0 -8 5 -15 10 -15 6 0 10 7 10 15 0 8 -4 15 -10 15 -5 0
-10 -7 -10 -15z"/>
<path d="M1470 1355 c0 -8 4 -15 10 -15 5 0 7 7 4 15 -4 8 -8 15 -10 15 -2 0
-4 -7 -4 -15z"/>
<path d="M3215 1360 c3 -5 8 -10 11 -10 2 0 4 5 4 10 0 6 -5 10 -11 10 -5 0
-7 -4 -4 -10z"/>
<path d="M3430 1359 c0 -5 5 -7 10 -4 6 3 10 8 10 11 0 2 -4 4 -10 4 -5 0 -10
-5 -10 -11z"/>
<path d="M3030 1350 c0 -5 5 -10 10 -10 6 0 10 5 10 10 0 6 -4 10 -10 10 -5 0
-10 -4 -10 -10z"/>
<path d="M3111 1349 c18 -11 39 -11 39 0 0 5 -12 9 -26 9 -18 0 -22 -3 -13 -9z"/>
<path d="M3523 1314 c0 -23 1 -24 9 -10 7 12 7 21 0 28 -6 6 -9 0 -9 -18z"/>
<path d="M3623 1333 c-17 -6 -17 -23 0 -23 8 0 14 7 14 15 0 8 -1 15 -1 14 -1
0 -7 -3 -13 -6z"/>
<path d="M3690 1330 c0 -5 5 -10 11 -10 5 0 7 5 4 10 -3 6 -8 10 -11 10 -2 0
-4 -4 -4 -10z"/>
<path d="M1548 1314 c-5 -4 -8 -15 -8 -25 0 -10 -6 -19 -12 -22 -7 -2 -5 -3 5
-2 18 3 23 -10 7 -20 -5 -3 -10 -11 -10 -18 0 -6 7 -1 16 11 15 22 17 92 2 76z"/>
<path d="M3658 1313 c7 -3 16 -2 19 1 4 3 -2 6 -13 5 -11 0 -14 -3 -6 -6z"/>
<path d="M3280 1300 c0 -5 5 -10 11 -10 5 0 7 5 4 10 -3 6 -8 10 -11 10 -2 0
-4 -4 -4 -10z"/>
<path d="M3544 1294 c3 -9 6 -18 6 -20 0 -3 4 -3 10 1 11 7 2 35 -12 35 -6 0
-7 -7 -4 -16z"/>
<path d="M1625 1290 c3 -5 8 -10 11 -10 2 0 4 5 4 10 0 6 -5 10 -11 10 -5 0
-7 -4 -4 -10z"/>
<path d="M3640 1287 c0 -9 -6 -18 -12 -21 -10 -5 -10 -7 -1 -12 7 -3 10 -11 7
-18 -6 -15 23 -42 34 -32 3 4 -1 20 -10 35 -18 33 -7 69 13 41 9 -13 10 -13 6
0 -5 20 -37 26 -37 7z"/>
<path d="M1870 1265 c0 -8 5 -15 10 -15 6 0 10 7 10 15 0 8 -4 15 -10 15 -5 0
-10 -7 -10 -15z"/>
<path d="M1660 1240 c-8 -11 -21 -20 -29 -20 -12 0 -12 -3 -3 -12 9 -9 15 -10
20 -2 4 6 15 13 25 17 9 3 17 13 17 22 0 21 -13 19 -30 -5z"/>
<path d="M3312 1244 c-7 -8 -8 -14 -3 -14 10 0 25 19 20 25 -2 1 -10 -3 -17
-11z"/>
<path d="M3705 1250 c-3 -5 -1 -10 4 -10 6 0 11 5 11 10 0 6 -2 10 -4 10 -3 0
-8 -4 -11 -10z"/>
<path d="M3410 1240 c0 -5 7 -10 16 -10 8 0 12 5 9 10 -3 6 -10 10 -16 10 -5
0 -9 -4 -9 -10z"/>
<path d="M3525 1228 c-6 -25 -55 -55 -55 -35 0 8 -3 8 -8 2 -13 -18 -53 -36
-64 -29 -7 5 -8 3 -3 -6 4 -7 2 -16 -6 -21 -10 -6 -11 -9 -1 -9 6 0 12 -7 12
-15 0 -8 5 -15 11 -15 6 0 9 6 6 13 -6 17 42 67 59 60 16 -6 49 24 58 55 4 12
5 22 2 22 -3 0 -8 -10 -11 -22z"/>
<path d="M1598 1233 c7 -3 16 -2 19 1 4 3 -2 6 -13 5 -11 0 -14 -3 -6 -6z"/>
<path d="M1710 1230 c0 -5 5 -10 10 -10 6 0 10 5 10 10 0 6 -4 10 -10 10 -5 0
-10 -4 -10 -10z"/>
<path d="M3260 1219 c0 -6 -4 -8 -9 -5 -4 3 -13 -6 -19 -19 -14 -30 -6 -32 19
-4 10 11 23 18 28 14 6 -3 11 -2 11 3 0 6 -7 12 -15 16 -8 3 -15 1 -15 -5z"/>
<path d="M1575 1211 c-4 -7 -3 -16 2 -20 6 -3 13 -13 16 -21 5 -13 5 -13 6 0
0 8 -4 24 -8 34 -6 15 -10 16 -16 7z"/>
<path d="M3701 1205 c5 -22 35 -43 46 -31 4 5 2 11 -5 13 -7 3 -20 12 -28 21
-15 14 -16 14 -13 -3z"/>
<path d="M3587 1195 c3 -8 9 -12 14 -9 12 7 11 11 -5 17 -10 4 -13 1 -9 -8z"/>
<path d="M1610 1192 c0 -5 7 -13 16 -16 10 -4 14 -1 12 6 -5 15 -28 23 -28 10z"/>
<path d="M3605 1171 c-3 -5 4 -13 16 -16 28 -9 33 -2 9 13 -11 6 -21 8 -25 3z"/>
<path d="M1675 1160 c-8 -13 1 -27 26 -41 18 -9 19 -9 7 10 -7 12 -17 21 -23
21 -5 0 -3 5 5 10 9 6 10 10 3 10 -6 0 -15 -4 -18 -10z"/>
<path d="M1564 1152 c9 -16 -12 -44 -27 -35 -6 3 -7 1 -3 -5 4 -6 13 -9 21 -6
19 8 28 35 14 48 -9 8 -10 8 -5 -2z"/>
<path d="M1727 1153 c-13 -12 -7 -21 17 -27 14 -3 27 -14 29 -24 4 -16 5 -16
6 1 0 10 -5 20 -13 23 -8 3 -12 12 -9 20 5 14 -18 20 -30 7z"/>
<path d="M1805 1150 c3 -5 8 -10 11 -10 2 0 4 5 4 10 0 6 -5 10 -11 10 -5 0
-7 -4 -4 -10z"/>
<path d="M2165 1150 c-3 -5 -1 -10 4 -10 6 0 11 5 11 10 0 6 -2 10 -4 10 -3 0
-8 -4 -11 -10z"/>
<path d="M1607 1136 c-4 -10 -1 -16 8 -16 8 0 17 -11 21 -25 3 -14 13 -25 23
-25 9 0 12 3 6 8 -6 4 -20 22 -31 40 -17 26 -23 30 -27 18z"/>
<path d="M3132 1130 c7 -10 14 -18 15 -16 6 6 -9 36 -18 36 -5 0 -4 -9 3 -20z"/>
<path d="M3445 1140 c-7 -12 2 -30 16 -30 5 0 9 6 9 14 0 8 6 17 13 19 6 3 2
6 -10 6 -12 1 -25 -3 -28 -9z"/>
<path d="M1980 1125 c0 -8 5 -15 10 -15 6 0 10 7 10 15 0 8 -4 15 -10 15 -5 0
-10 -7 -10 -15z"/>
<path d="M3650 1126 c0 -9 5 -16 10 -16 6 0 10 4 10 9 0 6 -4 13 -10 16 -5 3
-10 -1 -10 -9z"/>
<path d="M2440 1119 c0 -5 5 -7 10 -4 6 3 10 8 10 11 0 2 -4 4 -10 4 -5 0 -10
-5 -10 -11z"/>
<path d="M3500 1119 c0 -4 16 -9 35 -11 19 -2 35 -1 35 3 0 4 -16 9 -35 11
-19 2 -35 1 -35 -3z"/>
<path d="M3680 1116 c0 -8 5 -18 10 -21 6 -3 10 3 10 14 0 12 -4 21 -10 21 -5
0 -10 -6 -10 -14z"/>
<path d="M1576 1103 c-6 -14 -5 -15 5 -6 7 7 10 15 7 18 -3 3 -9 -2 -12 -12z"/>
<path d="M3068 1108 c6 -6 18 -8 28 -6 14 3 12 5 -9 10 -19 3 -25 2 -19 -4z"/>
<path d="M3580 1104 c0 -9 5 -14 12 -12 18 6 21 28 4 28 -9 0 -16 -7 -16 -16z"/>
<path d="M1805 1100 c-3 -6 1 -7 9 -4 18 7 21 14 7 14 -6 0 -13 -4 -16 -10z"/>
<path d="M2355 1101 c-3 -5 -1 -12 4 -15 5 -3 11 1 15 9 6 16 -9 21 -19 6z"/>
<path d="M3165 1100 c3 -5 8 -10 11 -10 2 0 4 5 4 10 0 6 -5 10 -11 10 -5 0
-7 -4 -4 -10z"/>
<path d="M3242 1095 c-7 -8 -9 -15 -4 -15 5 0 15 7 22 15 16 19 -1 19 -18 0z"/>
<path d="M1990 1090 c-9 -6 -10 -10 -3 -10 6 0 15 5 18 10 8 12 4 12 -15 0z"/>
<path d="M3360 1090 c0 -5 10 -10 23 -10 18 0 19 2 7 10 -19 13 -30 13 -30 0z"/>
<path d="M1605 1080 c3 -5 11 -10 16 -10 6 0 7 5 4 10 -3 6 -11 10 -16 10 -6
0 -7 -4 -4 -10z"/>
<path d="M2470 1080 c0 -5 5 -10 11 -10 5 0 7 5 4 10 -3 6 -8 10 -11 10 -2 0
-4 -4 -4 -10z"/>
<path d="M3060 1080 c0 -5 4 -10 9 -10 5 0 17 -7 26 -16 23 -23 30 -10 8 15
-18 22 -43 28 -43 11z"/>
<path d="M3436 1082 c-3 -5 -3 -18 1 -30 4 -19 7 -19 20 -7 13 13 13 17 -1 30
-8 8 -17 11 -20 7z"/>
<path d="M3660 1076 c0 -9 7 -16 16 -16 17 0 14 22 -4 28 -7 2 -12 -3 -12 -12z"/>
<path d="M1550 1070 c0 -5 5 -10 11 -10 5 0 7 5 4 10 -3 6 -8 10 -11 10 -2 0
-4 -4 -4 -10z"/>
<path d="M1700 1070 c0 -5 5 -10 10 -10 6 0 10 5 10 10 0 6 -4 10 -10 10 -5 0
-10 -4 -10 -10z"/>
<path d="M1840 1060 c0 -11 7 -20 15 -20 13 0 14 4 5 20 -6 11 -13 20 -15 20
-3 0 -5 -9 -5 -20z"/>
<path d="M2555 1070 c3 -5 8 -10 11 -10 2 0 4 5 4 10 0 6 -5 10 -11 10 -5 0
-7 -4 -4 -10z"/>
<path d="M2610 1070 c0 -5 5 -10 11 -10 5 0 7 5 4 10 -3 6 -8 10 -11 10 -2 0
-4 -4 -4 -10z"/>
<path d="M3148 1070 c12 -5 22 -15 22 -22 0 -9 3 -9 9 2 13 20 4 30 -27 29
-26 0 -26 -1 -4 -9z"/>
<path d="M3530 1070 c0 -6 -11 -15 -25 -20 -14 -5 -25 -13 -25 -18 0 -14 36
-52 43 -45 4 3 -3 14 -15 25 -12 10 -19 19 -17 21 43 25 49 27 49 12 0 -8 4
-15 10 -15 6 0 5 -11 -3 -27 -19 -45 -65 -73 -54 -34 3 14 0 17 -14 14 -11 -3
-19 -9 -19 -13 0 -5 -3 -17 -6 -27 -5 -14 -4 -15 4 -4 9 12 15 13 36 3 22 -10
26 -9 26 3 0 8 2 15 4 15 2 0 12 3 21 6 9 4 15 3 13 -2 -5 -18 12 -74 22 -74
5 0 10 5 10 10 0 6 -5 10 -10 10 -6 0 -10 6 -9 13 1 6 -1 29 -6 51 -6 28 -4
40 6 47 12 7 12 9 0 9 -8 0 -11 7 -8 19 3 12 -1 22 -10 25 -20 8 -23 8 -23 -4z"/>
<path d="M3603 1053 c-1 -22 1 -24 8 -10 6 9 18 17 27 18 14 0 13 2 -3 9 -29
13 -30 12 -32 -17z"/>
<path d="M3700 1071 c0 -10 19 -25 25 -20 1 2 -3 10 -11 17 -8 7 -14 8 -14 3z"/>
<path d="M1581 1065 c-1 -21 14 -34 29 -25 13 8 13 10 -2 10 -9 0 -19 6 -21
13 -3 6 -6 8 -6 2z"/>
<path d="M3350 1062 c0 -6 -10 -12 -22 -14 -14 -2 -19 -6 -12 -10 13 -9 52 17
41 28 -4 4 -7 2 -7 -4z"/>
<path d="M2060 1040 c0 -5 4 -10 9 -10 6 0 13 5 16 10 3 6 -1 10 -9 10 -9 0
-16 -4 -16 -10z"/>
<path d="M2320 1040 c20 -13 33 -13 25 0 -3 6 -14 10 -23 10 -15 0 -15 -2 -2
-10z"/>
<path d="M1659 1021 c28 -25 38 -26 56 -7 12 12 11 14 -8 13 -12 -1 -33 3 -47
7 l-25 8 24 -21z"/>
<path d="M2227 1033 c-4 -3 -7 -15 -7 -25 0 -10 -5 -18 -12 -18 -9 0 -9 -3 -1
-11 16 -16 32 -3 26 21 -4 15 0 20 16 20 11 0 21 5 21 10 0 11 -33 14 -43 3z"/>
<path d="M2290 1026 c0 -8 -5 -16 -12 -18 -7 -3 -6 -7 5 -11 13 -5 17 -1 17
18 0 14 -2 25 -5 25 -3 0 -5 -6 -5 -14z"/>
<path d="M2532 1028 c-19 -19 -15 -48 7 -48 11 0 23 -4 26 -10 12 -19 23 -10
21 18 -3 48 -27 67 -54 40z m38 -28 c0 -5 -2 -10 -4 -10 -3 0 -8 5 -11 10 -3
6 -1 10 4 10 6 0 11 -4 11 -10z"/>
<path d="M1830 1020 c0 -12 40 -33 48 -25 4 4 -2 13 -12 21 -23 16 -36 18 -36
4z"/>
<path d="M3287 1014 c3 -9 11 -13 18 -10 7 2 18 -1 24 -7 6 -6 14 -8 18 -4 9
10 1 16 -35 26 -25 8 -30 7 -25 -5z"/>
<path d="M3380 1018 c0 -10 5 -18 10 -18 6 0 19 -9 29 -19 17 -17 20 -17 23
-3 5 21 -28 56 -38 41 -4 -8 -9 -7 -15 2 -7 11 -9 10 -9 -3z"/>
<path d="M3637 1023 c14 -3 25 -14 29 -29 7 -26 34 -34 34 -9 0 8 -6 15 -14
15 -8 0 -16 7 -20 15 -3 8 -16 14 -28 14 l-23 -2 22 -4z"/>
<path d="M2908 1013 c7 -3 16 -2 19 1 4 3 -2 6 -13 5 -11 0 -14 -3 -6 -6z"/>
<path d="M1764 986 c0 -14 6 -22 14 -19 17 7 15 43 -2 43 -8 0 -13 -9 -12 -24z"/>
<path d="M2330 1000 c0 -5 9 -10 20 -10 11 0 20 5 20 10 0 6 -9 10 -20 10 -11
0 -20 -4 -20 -10z"/>
<path d="M2853 993 c4 -6 0 -16 -9 -21 -14 -8 -14 -10 -1 -15 25 -9 41 18 20
34 -10 8 -14 9 -10 2z"/>
<path d="M3084 989 c-3 -5 2 -11 10 -14 9 -3 23 -7 30 -9 10 -3 13 0 10 9 -7
16 -42 26 -50 14z"/>
<path d="M2080 980 c-9 -6 -10 -10 -3 -10 6 0 15 5 18 10 8 12 4 12 -15 0z"/>
<path d="M2736 965 c9 -14 20 -25 26 -25 11 0 -23 49 -35 50 -4 0 0 -11 9 -25z"/>
<path d="M3230 975 c-11 -13 -10 -14 5 -9 12 5 23 1 31 -11 20 -26 17 -32 -10
-32 -17 0 -23 4 -19 13 3 9 -2 14 -12 14 -10 0 -14 -5 -11 -12 3 -7 9 -21 12
-31 4 -10 13 -16 20 -13 8 3 14 -1 14 -10 0 -11 4 -12 19 -5 15 9 20 7 24 -9
6 -24 -12 -38 -24 -19 -5 8 -9 9 -9 3 0 -16 21 -33 35 -28 7 3 16 1 20 -5 3
-6 11 -11 16 -11 6 0 7 5 4 10 -3 6 -2 10 3 10 6 0 13 12 17 27 3 15 11 30 16
33 5 3 -7 6 -26 6 -23 0 -32 -3 -25 -10 14 -14 12 -38 -2 -33 -7 2 -13 9 -13
14 0 6 -3 15 -7 19 -17 16 -7 33 19 31 21 -2 28 4 34 26 4 15 4 27 -1 27 -5 0
-17 3 -27 7 -17 7 -17 6 0 -11 21 -21 22 -46 2 -46 -8 0 -15 7 -15 16 0 8 -5
12 -10 9 -6 -3 -13 1 -16 9 -3 9 -12 16 -20 16 -8 0 -14 5 -14 10 0 15 -16 12
-30 -5z"/>
<path d="M3180 966 c0 -8 5 -18 10 -21 6 -3 10 3 10 14 0 12 -4 21 -10 21 -5
0 -10 -6 -10 -14z"/>
<path d="M3623 965 c-23 -10 -31 -25 -14 -25 5 0 16 -3 24 -6 16 -6 29 17 19
32 -4 6 -16 6 -29 -1z"/>
<path d="M1570 961 c0 -5 7 -12 16 -15 14 -5 15 -4 4 9 -14 17 -20 19 -20 6z"/>
<path d="M2680 960 c0 -5 5 -10 11 -10 5 0 7 5 4 10 -3 6 -8 10 -11 10 -2 0
-4 -4 -4 -10z"/>
<path d="M2881 951 c-9 -16 -8 -18 9 -14 21 6 26 18 11 28 -6 3 -15 -3 -20
-14z"/>
<path d="M2925 949 c-9 -27 1 -35 20 -16 19 19 19 23 1 30 -9 4 -17 -2 -21
-14z"/>
<path d="M2988 945 c-3 -16 -1 -25 7 -25 7 0 12 11 11 25 -1 32 -12 32 -18 0z"/>
<path d="M3380 960 c0 -5 5 -10 10 -10 6 0 10 5 10 10 0 6 -4 10 -10 10 -5 0
-10 -4 -10 -10z"/>
<path d="M1860 949 c0 -5 5 -7 10 -4 6 3 10 8 10 11 0 2 -4 4 -10 4 -5 0 -10
-5 -10 -11z"/>
<path d="M3054 948 c3 -11 -1 -18 -15 -20 -20 -3 -20 -4 -2 -24 10 -11 24 -19
31 -17 6 3 12 -1 12 -8 0 -7 8 -4 20 9 26 28 25 32 -5 32 -14 0 -25 -4 -25
-10 0 -5 -5 -10 -10 -10 -7 0 -7 6 -1 18 6 12 6 23 -1 33 -8 11 -9 11 -4 -3z"/>
<path d="M3696 952 c7 -4 14 -16 17 -27 4 -15 5 -14 6 8 1 20 -4 27 -16 27
-12 0 -14 -3 -7 -8z"/>
<path d="M3140 930 c0 -11 2 -20 4 -20 2 0 6 9 9 20 3 11 1 20 -4 20 -5 0 -9
-9 -9 -20z"/>
<path d="M3415 910 c-18 -34 -19 -60 -4 -60 6 0 9 9 6 20 -3 13 0 20 9 20 8 0
14 10 14 25 0 33 -6 32 -25 -5z"/>
<path d="M2896 911 c-4 -7 -5 -15 -2 -18 9 -9 19 4 14 18 -4 11 -6 11 -12 0z"/>
<path d="M3180 900 c-13 -24 0 -41 30 -39 11 1 10 3 -2 6 -21 5 -24 19 -5 26
9 3 9 7 0 17 -9 9 -14 7 -23 -10z"/>
<path d="M3657 903 c-14 -4 -16 -8 -6 -19 9 -11 8 -15 -5 -20 -16 -6 -23 -34
-8 -34 18 1 37 28 37 53 0 15 0 26 0 26 0 -1 -8 -3 -18 -6z"/>
<path d="M3142 884 c-7 -8 -8 -14 -3 -14 10 0 25 19 20 25 -2 1 -10 -3 -17
-11z"/>
<path d="M3460 880 c0 -19 11 -26 23 -14 8 8 -3 34 -14 34 -5 0 -9 -9 -9 -20z"/>
<path d="M3501 887 c8 -7 18 -20 22 -31 6 -15 10 -16 22 -6 30 25 7 50 -45 50
-13 -1 -13 -2 1 -13z"/>
<path d="M3730 890 c0 -5 5 -10 11 -10 5 0 7 5 4 10 -3 6 -8 10 -11 10 -2 0
-4 -4 -4 -10z"/>
<path d="M2975 880 c3 -5 10 -10 16 -10 5 0 9 5 9 10 0 6 -7 10 -16 10 -8 0
-12 -4 -9 -10z"/>
<path d="M3728 863 c7 -3 16 -2 19 1 4 3 -2 6 -13 5 -11 0 -14 -3 -6 -6z"/>
<path d="M3090 850 c0 -5 5 -10 10 -10 6 0 10 5 10 10 0 6 -4 10 -10 10 -5 0
-10 -4 -10 -10z"/>
<path d="M3153 853 c-15 -5 -18 -33 -4 -33 5 0 11 9 14 20 3 11 4 20 4 19 -1
0 -8 -3 -14 -6z"/>
<path d="M3426 845 c-17 -13 -18 -18 -6 -40 12 -23 46 -43 56 -33 2 3 -5 14
-15 25 -12 13 -18 29 -14 42 6 25 4 25 -21 6z"/>
<path d="M3555 850 c-3 -5 1 -10 9 -10 9 0 16 5 16 10 0 6 -4 10 -9 10 -6 0
-13 -4 -16 -10z"/>
<path d="M3180 820 c0 -13 32 -28 48 -23 7 3 10 -1 6 -10 -3 -8 1 -17 9 -20
11 -4 13 0 10 14 -3 11 0 19 8 19 13 0 3 14 -12 16 -5 1 -10 2 -11 3 -10 8
-58 8 -58 1z"/>
<path d="M3680 824 c0 -7 27 -34 33 -34 3 0 3 9 0 20 -5 17 -33 30 -33 14z"/>
<path d="M3368 812 c11 -7 9 -10 -7 -15 -28 -7 -27 -34 2 -33 24 1 47 18 47
35 0 6 -4 11 -9 11 -5 0 -18 3 -28 6 -13 4 -14 3 -5 -4z"/>
<path d="M3517 795 c22 -30 29 -31 36 -5 6 22 -8 37 -16 18 -4 -10 -6 -10 -6
0 -1 6 -8 12 -16 12 -14 0 -13 -3 2 -25z"/>
<path d="M3300 801 c0 -6 5 -13 10 -16 6 -3 10 1 10 9 0 9 -4 16 -10 16 -5 0
-10 -4 -10 -9z"/>
<path d="M3661 794 c0 -11 3 -14 6 -6 3 7 2 16 -1 19 -3 4 -6 -2 -5 -13z"/>
<path d="M3735 790 c3 -5 1 -10 -4 -10 -6 0 -11 -9 -11 -20 0 -12 7 -20 16
-20 11 0 14 5 10 16 -5 12 -2 15 13 11 14 -3 17 0 14 14 -3 11 -14 19 -25 19
-10 0 -16 -4 -13 -10z"/>
<path d="M3292 763 c-29 -6 -19 -23 14 -23 15 0 24 6 24 15 0 8 -3 14 -7 14
-5 -1 -18 -4 -31 -6z"/>
<path d="M3635 750 c3 -5 8 -10 11 -10 2 0 4 5 4 10 0 6 -5 10 -11 10 -5 0 -7
-4 -4 -10z"/>
<path d="M3455 740 c3 -6 1 -10 -5 -10 -6 0 -4 -7 5 -16 9 -9 14 -23 11 -30
-8 -22 8 -16 22 7 12 18 11 21 -8 26 -14 4 -18 8 -10 13 8 5 7 9 -5 13 -9 4
-13 3 -10 -3z"/>
<path d="M3600 735 c0 -8 5 -15 10 -15 6 0 10 7 10 15 0 8 -4 15 -10 15 -5 0
-10 -7 -10 -15z"/>
<path d="M3660 730 c-8 -4 -26 -13 -39 -19 -19 -11 -25 -10 -32 1 -8 11 -11
11 -18 -1 -8 -12 -12 -12 -26 2 -9 10 -22 17 -28 16 -9 0 -8 -2 1 -6 6 -2 12
-9 12 -13 0 -5 12 -21 26 -37 l26 -28 -7 28 c-5 17 -3 27 4 27 6 0 11 -5 11
-11 0 -6 9 -8 20 -4 13 4 22 1 26 -9 3 -9 13 -16 22 -16 13 0 12 3 -4 15 -11
8 -14 15 -6 15 6 0 12 6 12 14 0 8 10 16 23 18 16 2 18 5 7 9 -8 4 -22 3 -30
-1z"/>
<path d="M3771 703 c0 -25 1 -26 9 -8 12 27 12 35 0 35 -5 0 -10 -12 -9 -27z"/>
<path d="M3740 680 c0 -5 -9 -19 -20 -30 -17 -17 -17 -20 -4 -20 9 0 18 9 21
20 3 11 9 20 14 20 5 0 9 5 9 10 0 6 -4 10 -10 10 -5 0 -10 -4 -10 -10z"/>
<path d="M3508 663 c-10 -2 -18 -9 -18 -14 0 -14 26 -11 40 6 13 15 9 16 -22
8z"/>
<path d="M3606 614 c-8 -21 -8 -21 9 -21 8 0 15 9 15 19 0 22 -16 24 -24 2z"/>
<path d="M3770 595 c0 -19 5 -35 11 -35 5 0 8 4 4 9 -3 6 2 14 12 19 14 9 15
13 4 26 -21 25 -31 19 -31 -19z"/>
<path d="M3656 604 c-5 -14 -4 -15 9 -4 17 14 19 20 6 20 -5 0 -12 -7 -15 -16z"/>
<path d="M3725 610 c4 -6 11 -8 16 -5 14 9 11 15 -7 15 -8 0 -12 -5 -9 -10z"/>
<path d="M3552 598 c6 -18 28 -21 28 -4 0 9 -7 16 -16 16 -9 0 -14 -5 -12 -12z"/>
<path d="M3570 570 c-13 -8 -12 -10 3 -10 9 0 17 -5 17 -11 0 -6 14 -9 33 -7
30 3 32 1 37 -35 3 -21 8 -38 13 -37 4 0 12 0 17 0 16 0 12 40 -5 46 -8 4 -12
10 -9 15 3 5 0 9 -6 9 -6 0 -15 10 -20 23 -7 17 -9 18 -9 5 -1 -22 -27 -24
-35 -3 -6 17 -15 19 -36 5z"/>
<path d="M3725 510 c-3 -5 -2 -10 4 -10 5 0 13 5 16 10 3 6 2 10 -4 10 -5 0
-13 -4 -16 -10z"/>
<path d="M3820 505 c-7 -9 -8 -15 -2 -15 5 0 12 7 16 15 3 8 4 15 2 15 -2 0
-9 -7 -16 -15z"/>
<path d="M3750 490 c0 -5 5 -10 10 -10 6 0 10 -7 10 -17 0 -9 3 -14 6 -10 8 8
-5 47 -17 47 -5 0 -9 -4 -9 -10z"/>
<path d="M3847 479 c4 -13 8 -18 11 -10 2 7 -1 18 -6 23 -8 8 -9 4 -5 -13z"/>
<path d="M3705 420 c-3 -5 -1 -10 4 -10 6 0 11 5 11 10 0 6 -2 10 -4 10 -3 0
-8 -4 -11 -10z"/>
<path d="M3754 416 c-11 -6 -19 -17 -16 -24 3 -9 10 -6 23 9 10 12 19 24 19
26 0 4 0 4 -26 -11z"/>
<path d="M3794 380 c-23 -9 -42 -30 -27 -30 4 0 19 9 33 20 27 21 26 23 -6 10z"/>
</g>
</svg>
